<?xml version="1.0" encoding="UTF-8"?>
<svg id="Layer_1" data-name="Layer 1" xmlns="http://www.w3.org/2000/svg" viewBox="0 0 607 387">
  <defs>
    <style>
      .cls-1 {
        fill: #e5054b;
      }

      .cls-2 {
        fill: #e58646;
      }

      .cls-3 {
        fill: #030303;
      }

      .cls-4 {
        fill: #910a41;
        font-family: MyriadPro-Regular, 'Myriad Pro';
        font-size: 92.56px;
      }

      .cls-5 {
        fill: #d81665;
      }

      .cls-6 {
        fill: #991146;
      }

      .cls-7 {
        fill: #a31944;
      }

      .cls-8 {
        fill: #231f20;
      }

      .cls-9 {
        letter-spacing: 0em;
      }
    </style>
  </defs>
  <path class="cls-8" d="M159.69,159.41l1.61,6.39c.05,.17-.05,.35-.22,.4-.95,.3-1.88,.25-2.78-.17-.18-.08-.32-.23-.39-.41-5.01-13.27-8.84-27.26-12.6-40.84-.28-1.02-.22-1.04,.19-.07,3.7,8.8,7.51,17.84,11.43,27.11,.29,.68,.26,.97,1.09,1.13,7.92,1.48,15.66,3.55,23.22,6.21,.07,.03,.12,.1,.11,.18-.01,.07-.08,.13-.16,.13l-21.25-.37c-.21,0-.29,.09-.24,.29h0Z"/>
  <path class="cls-8" d="M142.74,202.83c2.17-22.68,1.83-45.33-.99-67.94-.04-.34,.04-.37,.25-.1,.73,.95,1.32,2.02,1.75,3.22,3.34,9.25,14.54,47.34,6.7,54.3-.15,.13-.23,.3-.25,.49l-.75,10.98c-.02,.22,.09,.35,.3,.37,5.34,.8,10.64,1.74,15.92,2.8,1.48,.3,1.47,.43-.05,.4l-16.05-.36c-.21,0-.32,.1-.32,.31v11.25c0,.19-.1,.29-.29,.29h-6.62c-.32,0-.56-.26-.55-.58l.63-11.06c.02-.26-.1-.39-.36-.4l-12.44-.67c-.18-.01-.32-.16-.33-.33l-.11-3.88c0-.19,.16-.34,.35-.33l12.93,1.43c.16,.02,.24-.05,.26-.21h0Z"/>
  <path class="cls-8" d="M16,169.47v-3.38c3.9-.43,7.81-.78,11.75-1.08,33.37-2.48,66.77-4.57,100.19-6.28,1.87-.1,3.73-.02,5.57,.23,.05,0,.08,.05,.09,.09,0,.05-.03,.09-.07,.1-1.96,.44-3.96,.75-5.98,.94-28.31,2.67-47.1,4.42-56.37,5.23-15.88,1.37-34.26,2.76-55.17,4.15h0Z"/>
  <path class="cls-8" d="M69.25,178.61c-.16-.05-.17-.26-.02-.34,2.82-1.37,5.82-2.29,9.02-2.74,14.81-2.1,30.14-2.17,45.07-1.77,.05,0,.09,.04,.09,.09,0,.05-.03,.09-.08,.1-11.94,2.24-23.97,3.92-36.07,5.05-5.51,.52-12.67,1.24-18.01-.39h0Z"/>
  <path class="cls-8" d="M196.99,226.83c-13.88-1.48-27.62-3.82-41.27-6.74-.21-.05-.32-.18-.31-.4l.21-6.87c0-.24,.13-.33,.36-.29,3.75,.75,7.95,1.88,12.59,3.38,9.95,3.2,19.87,6.79,29.76,10.78,.12,.05,.09,.22-.04,.22-.4,0-.83-.02-1.29-.07h0Z"/>
  <path class="cls-6" d="M285.36,13.33l24.76,57.51s0,.09-.04,.11c-.04,.02-.09,0-.11-.03l-32.81-47.32c-.11-.16-.1-.32,.02-.47l7.61-9.87c.23-.3,.43-.28,.57,.07h0Z"/>
  <path class="cls-5" d="M352.96,48.52c.2-.11,.4-.1,.6,.03,.41,.27,.88,.7,1.42,1.3,2.63,2.87,5.4,5.56,8.29,8.06,.16,.13,.1,.39-.1,.45l-53.81,11.63c-1.21,.37-1.26,.26-.15-.36l43.75-21.11h0Z"/>
  <path d="M323.34,23.5c.06-.22,.21-.36,.44-.4,.48-.1,1.12-.13,1.93-.09,3.89,.17,7.75,.11,11.56-.16,.21-.02,.34,.2,.25,.39l-29.83,46.27c-.59,1.12-.71,1.08-.36-.14l16.01-45.86h0Z"/>
  <path class="cls-8" d="M591,127.62v11.95l-127.23-2.09c-.18,0-.32,.07-.39,.24-2.03,4.27-4.76,8.04-8.21,11.29-.22,.21-.4,.18-.52-.11-8.16-19.47-16.68-39.15-27.98-57.09-.1-.16-.24-.29-.41-.37-8.12-4.09-16.26-8.18-24.41-12.24-5.92-2.96-10.52-2.47-17.32-.6-6.84,1.87-13.74,3.59-20.33,6.21-5.11,2.03-10.49,3.97-15.18,6.61-3.31,1.86-7.7,3.93-10.21,7.13-1.74,2.21-2.25,5.58-2.92,8.42-.05,.19-.03,.37,.04,.55l6.78,16.53c.07,.17,.08,.34,.04,.52-2.44,10.03-2.94,19.66-1.48,28.9,.53,3.42,3.79,4.61,6.87,3.51,14.74-5.27,21.87-21.81,23.1-36.44,.39-4.66-10.54-10.33-14.07-12.02-.16-.08-.1-.32,.08-.31,7.36,.53,14.05,2.91,20.06,7.12,.16,.11,.27,.07,.36-.09l7.42-14.88c.32-.63,.46-.6,.44,.11-.2,7.58-1.49,14.98-3.9,22.17-.17,.5-.05,.59,.37,.26,6.62-5.31,12.82-11.06,18.6-17.26,.22-.24,.3-.2,.24,.12-.6,2.71-1.7,5.2-3.31,7.46-.13,.18,.07,.41,.27,.32,7.8-3.9,16.74-11.39,22.34-16.42,.01-.01,.03-.01,.06,0,.03,.01,.07,.02,.11,.03,.03,.01,.06,.04,.04,.06-12.09,12.75-23.78,26.85-32.09,42.39-.37,.7-.55,1.44-.53,2.23,.12,5.53,.17,11.07,.15,16.61,0,1.09,.18,2.13,.55,3.15,2.29,6.19,4.6,12.4,6.91,18.61,.07,.19,.2,.36,.37,.48,5.61,4,11.49,7.51,17.67,10.55,.46,.23,.44,.29-.07,.2l-20.02-3.89c-.16-.03-.33,.04-.42,.18l-3.5,5.66c-.09,.13-.07,.26,.02,.39,8.25,9.92,15.25,21.02,21.82,32.07,.02,.04,.02,.1-.02,.13-.03,.03-.09,.03-.13,0-3.33-3.17-6.64-6.33-9.95-9.49-2.79-2.66-6.57-4.27-9.95-6.05-.19-.1-.33-.05-.41,.14l-5.33,12.24c-.07,.18-.21,.26-.41,.23-.86-.13-1.41-.22-2.25,.1-4.94,1.93-9.9,3.87-14.87,5.82-.2,.08-.35,.25-.4,.45-1.13,4.28-3.21,8.02-6.25,11.21-.32,.33-.47,.27-.46-.19l.18-7.48c0-.2-.25-.3-.39-.14l-8.51,9.82c-.12,.13-.33,.02-.29-.15l2.17-9.33c.06-.24-.1-.47-.34-.52-3.42-.63-8.54-1.04-11.47-2.85-3.56-2.2-7.19-4.48-10.88-6.85-.05-.03-.07-.09-.04-.15,.02-.05,.08-.07,.14-.06l12.71,4.2c.18,.06,.36,.06,.54,.02l30.42-7.84c.16-.04,.28-.11,.39-.24,.94-1.08,1.44-1.97,1.49-2.7,.21-2.78,.31-8.73,.29-17.85,0-.2-.07-.37-.22-.52l-4.08-3.95c-.08-.08-.19-.13-.3-.12l-41.57,1.14c-.22,0-.45,.09-.62,.23l-11.77,9.64c-.17,.13-.24,.3-.21,.52,.79,7.31,1.61,14.63,2.46,21.94,.41,3.55,.32,5.24,3.73,7.34,4.09,2.5,6.66,4.25,7.73,5.24,5.05,4.69,14.31,14.51,21.6,14.53,6.27,.02,12.51-.51,18.69-1.58,1.39-.24,2.73-.29,4.04-.17,7.71,.76,15.43,1.51,23.14,2.24,7.8,.73,13.91,.92,20.65-.73,4.7-1.15,14.07-3.6,28.12-7.35,1.32-.35,2.64-.5,3.98-.45,4.19,.14,7.64,.31,10.34,.51,4.36,.32,7.81-1.2,10.34-4.54,.12-.16,.27-.22,.46-.2,7.42,.82,12.49,1.44,15.21,1.87,16.51,2.6,50.54,8.11,102.06,16.55v16.66c-37.36-6.32-74.7-12.64-112.01-18.97-5.17-.88-8.65-1.12-13.24,.22-12.23,3.55-22.76,6.77-36.88,9.4-7.81,1.46-14.53,2.24-21.72,1.73-11.9-.84-23.36-3.28-35.04-5.84-1.1-.24-2.74-.45-3.63-.34-12.44,1.64-25.58,3.47-35.44-5.87-2.98-2.83-5.51-7.3-8.02-11.04-1.98-2.95-4.9-6.11-8.79-9.5-3.25-2.83-4.43-5.32-4.51-9.53-.05-2.88-.3-8.98-.75-18.28,0-.18-.07-.36-.17-.52l-6.6-9.58c-.07-.1-.11-.22-.12-.35l-1.71-23.03c-.01-.13-.17-.17-.25-.07l-6.36,9.14c-.13,.18-.2,.38-.21,.59-.44,9.42-.69,15.51-.75,18.27-.1,4.01-1.09,6.5-4.15,9.22-4.57,4.07-8.52,8.65-11.83,13.78-1.98,3.06-3.4,5.04-4.24,5.95-9.26,9.94-22.68,9.09-35.13,7.17-4.36-.68-10.15,1.27-15.58,2.53-5.95,1.39-12.9,2.43-20.87,3.15-10.03,.9-18.41,.06-28.3-2-10.8-2.24-17.89-3.92-21.28-5.01-7.21-2.34-15.82-5.71-21.52-4.74-38.61,6.55-77.24,13.09-115.9,19.62v-16.67c32.28-5.26,64.57-10.49,96.86-15.71,6.51-1.05,13.23-1.81,19.86-2.67,.2-.03,.36,.03,.51,.17,.48,.47,.89,1.18,1.25,1.53,6.56,6.23,15.44,.88,23.22,2.96,8.5,2.28,17.03,4.5,25.56,6.68,6.05,1.54,11.68,2.44,17.27,2.03,4.45-.32,14.33-1.27,29.65-2.84,.94-.1,2.43-.02,3.58,.18,6.38,1.12,11.99,1.68,16.84,1.68,8.46,0,15.31-6.74,21.32-12.49,3.21-3.07,6.46-5.14,10.06-7.42,2.79-1.77,3.18-3,3.53-6.12,.86-7.7,1.72-15.4,2.56-23.13,.02-.2-.05-.36-.2-.49l-11.94-9.75c-.1-.07-.22-.11-.34-.12l-41.62-1.09c-.18,0-.33,.06-.46,.18l-3.83,3.63c-.35,.33-.53,.79-.52,1.26,.13,5.53,.24,11.1,.32,16.72,.02,1.01,.54,2.09,1.58,3.25,.14,.16,.32,.26,.52,.32l30.09,7.75c.31,.08,.64,.07,.95-.03l12.27-4c.65-.21,.68-.13,.12,.24-3.56,2.29-7.26,4.61-11.1,6.95-2.66,1.62-7.6,1.93-10.82,2.58-.44,.09-.6,.35-.5,.78l2.2,9.18c.04,.17-.18,.29-.29,.16l-8.67-10.04c-.23-.26-.34-.22-.33,.13l.24,7.74c0,.22-.27,.34-.43,.17-3.04-3.26-5.15-7.04-6.35-11.34-.06-.21-.21-.38-.41-.46l-15.64-6.1c-.17-.06-.35-.06-.51,0-.74,.32-1.23,.18-1.48-.4-1.71-3.99-3.43-7.95-5.16-11.89-.06-.14-.24-.21-.38-.13-3.59,1.85-7.29,3.52-10.25,6.32-3.21,3.05-6.41,6.08-9.57,9.11-.03,.03-.09,.03-.13,0-.04-.03-.05-.08-.02-.12,6.57-11.02,13.45-22.07,21.65-31.92,.13-.16,.14-.32,.03-.49l-3.42-5.53c-.14-.22-.33-.31-.59-.26l-20.1,3.98s-.07-.01-.08-.05c-.01-.03,0-.07,.03-.09,6.26-3.09,12.22-6.66,17.91-10.73,.17-.12,.3-.29,.37-.48l7.19-19.44c.21-.56,.32-1.16,.31-1.75-.02-5.61-.02-11.35,.02-17.21,0-.84-.18-1.62-.56-2.34-7.81-14.73-19.64-29.12-30.96-41.07-2.31-2.44-2.23-2.54,.26-.28,6.09,5.52,13.42,11.45,21.19,15.45,.23,.12,.46-.16,.31-.36-1.63-2.24-2.73-4.72-3.32-7.43-.06-.3,0-.34,.21-.11,5.92,6.32,12.25,12.19,19,17.61,.09,.06,.2-.02,.17-.12-2.52-7.4-3.89-15.07-4.05-22.8,0-.21,.27-.28,.36-.09l7.46,14.97c.09,.18,.32,.24,.49,.12,5.95-4.18,12.58-6.52,19.88-7.01,.22-.02,.3,.29,.1,.38-3.94,1.77-11.37,5.74-13.47,9.69-.4,.76-.55,1.66-.44,2.71,1.41,14.02,8.29,30.63,22.34,35.71,3.48,1.26,6.76,.68,7.52-3.38,1.68-9.02,.67-19.76-1.4-28.97-.04-.18-.02-.37,.05-.54l6.66-16.23c.07-.18,.09-.36,.06-.55-.8-4.46-1.63-8.56-5.7-11.25-13.75-9.11-30.45-14.25-46.34-18.18-4.74-1.17-8.95-.83-12.64,1.01-8.53,4.25-17.06,8.52-25.6,12.81-.17,.08-.3,.21-.41,.37-11.24,17.57-19.61,36.77-28.03,57.17-.07,.17-.29,.22-.43,.09-3.46-3.27-6.22-7.05-8.27-11.33-.09-.19-.24-.28-.45-.28l-126.7,2.08v-.42l.11-10.95c0-.42,.21-.63,.63-.63,36.69-.05,73.06-.12,109.11-.21,3.39-.01,11.37-1.02,13.64-3.55,10.39-11.53,21.26-22.57,32.63-33.13,8.92-8.29,21.26-14.08,33.17-19.22,3.94-1.7,5.95-2.14,10.38-1.15,8.04,1.8,15.94,4.1,23.7,6.9,.79,.28,1.59,.37,2.4,.26,9.98-1.29,19.95-2.6,29.93-3.93,.21-.03,.41,0,.61,.09l22.05,9.43c.29,.13,.53,.36,.67,.64l11.25,24.39c.16,.33,.17,.72,.05,1.07-1.67,4.7-3.4,9.44-5.17,14.2-.63,1.7-.64,2.82,1.02,3.73,.16,.09,.26,.05,.34-.11l9.07-19.64c.07-.17,.2-.28,.37-.35l22.28-9.56c.17-.07,.36-.1,.54-.07,9.76,1.29,19.52,2.58,29.25,3.85,1.24,.16,1.8,.33,3.02-.11,6.86-2.47,14.96-4.82,24.29-7.06,3.13-.75,4.93-.76,8.06,.48,9.31,3.71,18.44,8.41,27.4,14.09,3.1,1.97,5.76,4,7.99,6.09,11.36,10.67,21.73,21.23,31.13,31.69,1.11,1.24,1.55,2.13,3.19,2.6,3.65,1.05,6.69,2.1,10.53,2.11,37.13,.09,74.25,.21,111.37,.35M251.64,57.67l5.13,1.77c.14,.05,.29,.05,.43-.01l8.16-3.26c.96-.39,.93-.52-.1-.39l-13.6,1.72c-.09,.01-.1,.14-.02,.17m24.97,27.54c.44,2-.57,4.19-1.5,6.29-.1,.22-.03,.32,.21,.26l19.15-4.16c1.37-.3,2.17-1.72,1.72-3.05l-6.41-18.73c-.06-.18-.2-.34-.37-.44l-12.86-7.12c-.19-.11-.39-.13-.59-.05l-14.59,5.1c-.21,.07-.22,.18-.06,.31,2.88,2.32,6.65,4.59,8.82,7.47,3.16,4.19,5.32,8.9,6.48,14.11m77.65-3.95l-13.83-1.79c-.06,0-.1,.03-.12,.08-.01,.06,.02,.11,.07,.13l8.88,3.54c.19,.07,.39,.08,.58,.01l4.46-1.59c.52-.19,.51-.32-.04-.39m-42.29,30.16l19.04,4.13c.28,.06,.49-.24,.35-.48-1.6-2.77-1.97-5.22-.95-8.42,1.72-5.38,4.4-11.07,8.95-14.64,1.95-1.52,3.89-3.05,5.82-4.56,.12-.09,.09-.28-.05-.33l-14.62-5.09c-.17-.06-.36-.04-.51,.05l-12.86,7.12c-.18,.1-.32,.27-.39,.47l-6.45,18.78c-.44,1.29,.34,2.68,1.67,2.97m-42.15,15.48l24.81,7.2c.21,.06,.43,0,.58-.14l3.48-3.39c.14-.13,.21-.32,.21-.51l-.28-18.44c0-.2-.06-.39-.17-.54l-7.72-11.5c-.08-.13-.2-.18-.35-.17l-18.38,1.66c-.21,.02-.34,.13-.42,.33-.76,2.06-2.36,5-2.17,7.17,.51,5.91,.55,11.89,.13,17.93-.01,.18,.11,.35,.28,.4m37.83,25.6c0,2.17,2.11,4.26,3.82,5.34,.17,.1,.34,.13,.52,.07l24.62-7.17c.26-.07,.39-.25,.37-.53-.45-5.84-.41-11.67,.11-17.51,.22-2.41-1.27-5.23-2.16-7.45-.09-.21-.28-.36-.51-.38l-18.24-1.62c-.18-.01-.36,.07-.46,.22l-7.49,11.19c-.24,.35-.37,.76-.37,1.18-.14,5.48-.21,11.03-.21,16.65m-69.75,11.06c11.63,.97,23.27,1.91,34.91,2.82,.82,.06,1.56,.32,2.24,.76,4.02,2.63,8.01,5.3,11.98,8.02,.17,.12,.34,.11,.5-.02l5.29-4.3c.18-.14,.28-.33,.3-.56l2.04-19.43c.03-.26-.03-.49-.19-.7l-10.83-14.94c-.1-.14-.25-.22-.41-.24l-14.31-1.78c-.17-.02-.26,.05-.26,.22-.16,4.55-1.87,8.94-6.77,10.05-8.58,1.95-15.77-1.83-22.63-6.61-.16-.11-.33-.17-.52-.18l-11.78-.58c-.19,0-.37,.07-.49,.22l-6,7.47c-.14,.17-.21,.37-.2,.59l.13,14.92c0,.18,.05,.34,.16,.48l4.15,5.54c.12,.16,.26,.21,.45,.17,3.79-.76,8.44-2.25,12.24-1.94m75.65,31.01l5.39,4.38c.16,.13,.39,.14,.56,.02,3.9-2.67,7.85-5.32,11.86-7.96,.68-.45,1.43-.71,2.24-.77,11.91-.99,23.82-1.93,35.74-2.79,3.55-.26,7.91,1.18,11.44,1.89,.21,.04,.39-.02,.52-.2l4.1-5.41c.11-.14,.17-.31,.17-.49l.21-15.05c0-.21-.06-.39-.19-.55l-6.07-7.56c-.1-.13-.25-.2-.41-.18l-12.07,.62c-.16,.01-.32,.07-.44,.17-4.88,3.99-12.3,7.54-18.72,7.12-7.71-.51-9.44-3.35-10.64-10.47-.03-.18-.2-.3-.37-.28l-14.01,1.75c-.21,.02-.39,.13-.51,.3l-10.87,14.93c-.11,.16-.16,.33-.14,.52l2.06,19.72c.01,.11,.07,.22,.16,.29m-9.84-31.81c-.09-.14-.3-.09-.32,.07l-.88,10.94c-.02,.17,.19,.25,.3,.13l4.4-5.15c.05-.06,.05-.14,.01-.2l-3.52-5.79h0Z"/>
  <path class="cls-2" d="M16,236.49v-67.02c20.9-1.39,39.29-2.77,55.17-4.15,9.27-.81,28.07-2.55,56.37-5.23,2.02-.19,4.02-.51,5.98-.94,.05-.01,.07-.05,.07-.1,0-.05-.04-.09-.09-.09-1.83-.25-3.69-.33-5.57-.23-33.42,1.71-66.82,3.8-100.19,6.28-3.93,.29-7.85,.65-11.75,1.08v-50.35l126.7-2.08c.21,0,.36,.09,.45,.28,2.05,4.28,4.81,8.06,8.27,11.33,.14,.13,.36,.08,.43-.09,8.42-20.4,16.8-39.59,28.03-57.17,.1-.16,.24-.29,.41-.37,8.54-4.28,17.07-8.55,25.6-12.81,3.69-1.84,7.91-2.17,12.64-1.01,15.89,3.93,32.59,9.07,46.34,18.18,4.07,2.7,4.9,6.79,5.7,11.25,.03,.19,.02,.37-.06,.55l-6.66,16.23c-.07,.17-.09,.36-.05,.54,2.07,9.21,3.08,19.95,1.4,28.97-.76,4.06-4.04,4.63-7.52,3.38-14.06-5.08-20.94-21.69-22.34-35.71-.11-1.05,.04-1.95,.44-2.71,2.09-3.95,9.52-7.93,13.47-9.69,.2-.09,.13-.4-.1-.38-7.3,.49-13.93,2.83-19.88,7.01-.17,.12-.4,.06-.49-.12l-7.46-14.97c-.09-.18-.37-.12-.36,.09,.16,7.73,1.53,15.4,4.05,22.8,.03,.1-.08,.18-.17,.12-6.74-5.42-13.08-11.29-19-17.61-.21-.22-.28-.18-.21,.11,.59,2.71,1.69,5.19,3.32,7.43,.15,.21-.08,.48-.31,.36-7.77-4-15.1-9.93-21.19-15.45-2.49-2.26-2.58-2.17-.26,.28,11.32,11.95,23.14,26.35,30.96,41.07,.39,.72,.57,1.5,.56,2.34-.04,5.86-.05,11.6-.02,17.21,0,.6-.1,1.19-.31,1.75l-7.19,19.44c-.07,.2-.2,.36-.37,.48-5.68,4.07-11.65,7.64-17.91,10.73-.03,.02-.05,.05-.03,.09,.01,.03,.05,.05,.08,.05l20.1-3.98c.26-.05,.45,.03,.59,.26l3.42,5.53c.11,.17,.1,.34-.03,.49-8.2,9.85-15.08,20.9-21.65,31.92-.02,.04-.02,.09,.02,.12,.04,.03,.09,.03,.13,0,3.17-3.03,6.36-6.07,9.57-9.11,2.96-2.81,6.65-4.48,10.25-6.32,.14-.07,.32-.01,.38,.13,1.73,3.94,3.45,7.9,5.16,11.89,.25,.58,.74,.71,1.48,.4,.16-.07,.34-.07,.51,0l15.64,6.1c.2,.08,.36,.25,.41,.46,1.2,4.31,3.32,8.08,6.35,11.34,.16,.17,.43,.05,.43-.17l-.24-7.74c-.01-.35,.1-.39,.33-.13l8.67,10.04c.11,.13,.33,.02,.29-.16l-2.2-9.18c-.1-.43,.06-.7,.5-.78,3.22-.66,8.16-.97,10.82-2.58,3.84-2.33,7.54-4.65,11.1-6.95,.57-.37,.53-.45-.12-.24l-12.27,4c-.31,.1-.64,.11-.95,.03l-30.09-7.75c-.2-.05-.37-.16-.52-.32-1.04-1.16-1.56-2.25-1.58-3.25-.08-5.61-.18-11.18-.32-16.72-.01-.48,.18-.94,.52-1.26l3.83-3.63c.13-.12,.28-.18,.46-.18l41.62,1.09c.12,0,.24,.05,.34,.12l11.94,9.75c.16,.13,.22,.29,.2,.49-.85,7.72-1.7,15.43-2.56,23.13-.35,3.13-.74,4.36-3.53,6.12-3.6,2.28-6.85,4.35-10.06,7.42-6.01,5.75-12.86,12.49-21.32,12.49-4.85,0-10.46-.56-16.84-1.68-1.16-.21-2.64-.28-3.58-.18-15.31,1.57-25.2,2.52-29.65,2.84-5.59,.41-11.22-.49-17.27-2.03-8.54-2.18-17.06-4.4-25.56-6.68-7.79-2.08-16.66,3.27-23.22-2.96-.37-.35-.78-1.06-1.25-1.53-.14-.14-.31-.2-.51-.17-6.63,.87-13.35,1.62-19.86,2.67-32.29,5.22-64.58,10.45-96.86,15.71m143.92-77.37l21.25,.37c.08,0,.15-.06,.16-.13,.01-.08-.03-.16-.11-.18-7.56-2.66-15.29-4.73-23.22-6.21-.83-.16-.81-.45-1.09-1.13-3.92-9.27-7.72-18.31-11.43-27.11-.41-.97-.47-.95-.19,.07,3.77,13.58,7.59,27.57,12.6,40.84,.07,.18,.21,.33,.39,.41,.9,.41,1.83,.47,2.78,.17,.17-.06,.27-.23,.22-.4l-1.61-6.39c-.05-.2,.03-.3,.24-.29m-17.45,43.92l-12.93-1.43c-.19-.02-.36,.14-.35,.33l.11,3.88c0,.18,.14,.32,.33,.33l12.44,.67c.26,.01,.38,.14,.36,.4l-.63,11.06c-.02,.32,.23,.58,.55,.58h6.62c.19,0,.29-.1,.29-.29v-11.25c0-.21,.11-.32,.32-.31l16.05,.36c1.51,.03,1.53-.1,.05-.4-5.28-1.06-10.59-2-15.92-2.8-.21-.03-.32-.16-.3-.37l.75-10.98c.02-.2,.1-.36,.25-.49,7.84-6.96-3.36-45.05-6.7-54.3-.44-1.2-1.02-2.27-1.75-3.22-.21-.27-.29-.24-.25,.1,2.82,22.6,3.16,45.25,.99,67.94-.02,.16-.1,.22-.26,.21m-73.23-24.43c5.34,1.63,12.49,.91,18.01,.39,12.1-1.13,24.13-2.81,36.07-5.05,.05-.01,.08-.05,.08-.1,0-.05-.05-.09-.09-.09-14.93-.4-30.26-.33-45.07,1.77-3.19,.45-6.2,1.36-9.02,2.74-.15,.07-.14,.29,.02,.34m86.47,41.47c13.65,2.93,27.39,5.26,41.27,6.74,.46,.05,.89,.07,1.29,.07,.13,0,.16-.18,.04-.22-9.88-3.98-19.8-7.57-29.76-10.78-4.65-1.49-8.84-2.62-12.59-3.38-.24-.05-.36,.05-.36,.29l-.21,6.87c0,.22,.1,.36,.31,.4h0Z"/>
  <path class="cls-2" d="M251.64,57.67c-.09-.03-.07-.16,.02-.17l13.6-1.72c1.03-.13,1.06,0,.1,.39l-8.16,3.26c-.14,.06-.29,.06-.43,.01l-5.13-1.77h0Z"/>
  <path class="cls-2" d="M275.11,91.5c.93-2.1,1.94-4.29,1.5-6.29-1.16-5.22-3.32-9.92-6.48-14.11-2.17-2.88-5.94-5.16-8.82-7.47-.17-.13-.15-.24,.06-.31l14.59-5.1c.2-.07,.4-.06,.59,.05l12.86,7.12c.17,.1,.3,.25,.37,.44l6.41,18.73c.45,1.33-.35,2.75-1.72,3.05l-19.15,4.16c-.24,.05-.31-.04-.21-.26h0Z"/>
  <path class="cls-2" d="M591,139.57v42.71c-35.12-2.83-70.3-4.87-105.49-6.73-2.92-.16-5.8-.11-8.72-.09-.07,0-.13,.06-.14,.13-.01,.07,.04,.14,.11,.16,1.55,.4,3.16,.68,4.85,.85,36.41,3.64,72.88,6.73,109.39,9.27v74.54c-51.53-8.44-85.55-13.95-102.06-16.55-2.73-.43-7.8-1.05-15.21-1.87-.19-.02-.34,.04-.46,.2-2.54,3.34-5.98,4.85-10.34,4.54-2.71-.2-6.16-.37-10.34-.51-1.34-.05-2.66,.1-3.98,.45-14.05,3.75-23.42,6.2-28.12,7.35-6.74,1.65-12.85,1.46-20.65,.73-7.72-.72-15.43-1.47-23.14-2.24-1.31-.13-2.65-.07-4.04,.17-6.18,1.07-12.41,1.59-18.69,1.58-7.29-.02-16.54-9.84-21.6-14.53-1.06-.99-3.64-2.74-7.73-5.24-3.42-2.09-3.32-3.78-3.73-7.34-.85-7.31-1.67-14.62-2.46-21.94-.02-.21,.05-.39,.21-.52l11.77-9.64c.17-.14,.4-.22,.62-.23l41.57-1.14c.12,0,.22,.04,.3,.12l4.08,3.95c.14,.14,.22,.32,.22,.52,.02,9.12-.08,15.07-.29,17.85-.05,.72-.55,1.62-1.49,2.7-.1,.12-.23,.2-.39,.24l-30.42,7.84c-.18,.05-.36,.04-.54-.02l-12.71-4.2c-.06-.02-.11,0-.14,.06-.03,.06-.01,.12,.04,.15,3.69,2.37,7.31,4.66,10.88,6.85,2.93,1.81,8.06,2.21,11.47,2.85,.24,.05,.4,.28,.34,.52l-2.17,9.33c-.04,.17,.18,.28,.29,.15l8.51-9.82c.13-.16,.39-.06,.39,.14l-.18,7.48c-.01,.46,.14,.52,.46,.19,3.04-3.19,5.12-6.93,6.25-11.21,.05-.21,.2-.37,.4-.45,4.97-1.95,9.93-3.89,14.87-5.82,.83-.32,1.39-.23,2.25-.1,.2,.03,.33-.05,.41-.23l5.33-12.24c.09-.2,.22-.24,.41-.14,3.38,1.78,7.16,3.39,9.95,6.05,3.31,3.16,6.62,6.32,9.95,9.49,.03,.03,.09,.03,.13,0,.04-.03,.05-.09,.02-.13-6.57-11.05-13.57-22.14-21.82-32.07-.1-.12-.11-.25-.02-.39l3.5-5.66c.09-.14,.26-.21,.42-.18l20.02,3.89c.51,.1,.53,.03,.07-.2-6.18-3.04-12.06-6.55-17.67-10.55-.17-.13-.3-.29-.37-.48-2.31-6.21-4.62-12.41-6.91-18.61-.37-1.01-.56-2.06-.55-3.15,.02-5.54-.03-11.07-.15-16.61-.02-.79,.16-1.53,.53-2.23,8.31-15.54,20-29.64,32.09-42.39,.02-.02,0-.05-.04-.06-.04-.01-.07-.02-.11-.03-.03-.01-.05-.01-.06,0-5.6,5.03-14.55,12.52-22.34,16.42-.2,.1-.4-.13-.27-.32,1.6-2.26,2.71-4.75,3.31-7.46,.07-.32-.01-.36-.24-.12-5.78,6.2-11.98,11.95-18.6,17.26-.41,.33-.53,.24-.37-.26,2.4-7.19,3.7-14.59,3.9-22.17,.02-.71-.13-.74-.44-.11l-7.42,14.88c-.09,.17-.2,.2-.36,.09-6.01-4.21-12.7-6.58-20.06-7.12-.18-.01-.24,.23-.08,.31,3.53,1.7,14.46,7.36,14.07,12.02-1.24,14.63-8.37,31.17-23.1,36.44-3.08,1.1-6.33-.09-6.87-3.51-1.45-9.24-.96-18.87,1.48-28.9,.04-.18,.03-.36-.04-.52l-6.78-16.53c-.07-.18-.09-.36-.04-.55,.67-2.85,1.18-6.21,2.92-8.42,2.51-3.2,6.91-5.27,10.21-7.13,4.69-2.63,10.07-4.58,15.18-6.61,6.59-2.62,13.49-4.34,20.33-6.21,6.8-1.86,11.4-2.35,17.32,.6,8.15,4.07,16.28,8.15,24.41,12.24,.17,.09,.31,.21,.41,.37,11.3,17.93,19.82,37.62,27.98,57.09,.12,.29,.29,.32,.52,.11,3.44-3.25,6.18-7.01,8.21-11.29,.07-.16,.21-.24,.39-.24l127.23,2.09m-139.27,38.07l-1.55,6.2c-.07,.3,.13,.6,.44,.63,1.67,.21,2.74,.09,3.36-1.71,4.55-13.27,8.59-26.56,12.13-39.9,.21-.78,.16-.79-.16-.05l-11.68,27.73c-.11,.26-.36,.46-.64,.51-7.99,1.52-15.81,3.61-23.49,6.28-.07,.02-.12,.1-.1,.17,.02,.07,.08,.13,.16,.13l21.25-.34c.24,0,.33,.11,.28,.34m8.17,52.54v11.09c0,.19,.1,.29,.29,.29h6.8c.22,0,.33-.11,.32-.33l-.59-11.32c-.01-.16,.06-.25,.23-.26l12.56-.7c.24-.01,.36-.14,.36-.38l.05-3.85c0-.21-.1-.3-.3-.28l-12.85,1.44c-.24,.03-.36-.07-.39-.3-.16-1.41-.32-3.3-.48-5.68-1.42-20.94-1.31-41.86,1.63-62.28,.02-.15-.16-.24-.26-.12-.46,.53-.84,1.16-1.14,1.87-3.92,9.18-15.28,48.73-7.42,55.8,.16,.13,.24,.3,.25,.51l.73,10.83c.01,.18-.12,.35-.3,.38l-16.57,3c-.06,.01-.11,.07-.1,.14,.01,.07,.06,.12,.13,.12l16.74-.27c.21,0,.32,.1,.32,.31m26.44-39.66c13.94,2.44,28.01,4.73,42.12,5.53,2.79,.16,9.25,.4,11.74-.72,.58-.26,.57-.52,0-.78-2.58-1.12-5.13-1.91-8.05-2.35-15.13-2.27-30.54-2.14-45.79-1.87-.05,0-.1,.04-.1,.09,0,.05,.03,.1,.08,.11m-74.53,61.11c13.9-2.64,27.6-6.08,41.11-10.33,.17-.05,.24-.16,.22-.33l-.67-6.74c-.02-.22-.14-.3-.35-.25-2.47,.59-4.45,1.18-5.93,1.76-11.97,4.7-23.66,9.94-35.07,15.72-.12,.06-.12,.23,0,.29,.13,.06,.25,.07,.37,.02,.17-.07,.28-.12,.32-.13h0Z"/>
  <path class="cls-2" d="M354.3,81.64l-4.46,1.59c-.2,.07-.39,.06-.58-.01l-8.88-3.54c-.05-.02-.08-.07-.07-.13,.02-.05,.06-.09,.12-.08l13.83,1.79c.55,.07,.56,.2,.04,.39h0Z"/>
  <path class="cls-2" d="M311.98,111.42c-1.33-.29-2.12-1.68-1.67-2.97l6.45-18.78c.07-.2,.21-.37,.39-.47l12.86-7.12c.16-.09,.34-.1,.51-.05l14.62,5.09c.14,.05,.17,.24,.05,.33-1.93,1.51-3.87,3.04-5.82,4.56-4.54,3.56-7.22,9.26-8.95,14.64-1.02,3.2-.65,5.65,.95,8.42,.14,.24-.07,.53-.35,.48l-19.04-4.13h0Z"/>
  <path class="cls-2" d="M269.82,126.9c-.17-.05-.29-.22-.28-.4,.42-6.04,.38-12.02-.13-17.93-.18-2.17,1.41-5.11,2.17-7.17,.07-.2,.21-.31,.42-.33l18.38-1.66c.15-.02,.26,.04,.35,.17l7.72,11.5c.11,.16,.17,.34,.17,.54l.28,18.44c0,.2-.07,.38-.21,.51l-3.48,3.39c-.16,.15-.37,.21-.58,.14l-24.81-7.2h0Z"/>
  <path class="cls-2" d="M311.48,157.84c-1.71-1.08-3.82-3.17-3.82-5.34,0-5.62,.06-11.17,.21-16.65,0-.43,.14-.83,.37-1.18l7.49-11.19c.1-.16,.28-.24,.46-.22l18.24,1.62c.22,.02,.42,.17,.51,.38,.9,2.23,2.38,5.04,2.16,7.45-.52,5.84-.56,11.68-.11,17.51,.02,.28-.1,.45-.37,.53l-24.62,7.17c-.18,.05-.36,.03-.52-.07h0Z"/>
  <path class="cls-2" d="M237.91,163.56c-3.81-.32-8.45,1.18-12.24,1.94-.19,.04-.34-.02-.45-.17l-4.15-5.54c-.11-.14-.16-.3-.16-.48l-.13-14.92c0-.22,.06-.42,.2-.59l6-7.47c.12-.15,.3-.23,.49-.22l11.78,.58c.19,.01,.36,.07,.52,.18,6.86,4.78,14.05,8.56,22.63,6.61,4.9-1.12,6.61-5.5,6.77-10.05,0-.17,.1-.25,.26-.22l14.31,1.78c.16,.02,.31,.1,.41,.24l10.83,14.94c.16,.21,.22,.44,.19,.7l-2.04,19.43c-.02,.22-.13,.41-.3,.56l-5.29,4.3c-.16,.13-.33,.14-.5,.02-3.97-2.72-7.96-5.39-11.98-8.02-.68-.44-1.43-.7-2.24-.76-11.64-.91-23.28-1.85-34.91-2.82h0Z"/>
  <path class="cls-8" d="M451.45,177.29l-21.25,.34c-.07,0-.14-.05-.16-.13-.01-.07,.03-.15,.1-.17,7.68-2.67,15.5-4.76,23.49-6.28,.28-.05,.52-.25,.64-.51l11.68-27.73c.31-.74,.36-.72,.16,.05-3.54,13.33-7.58,26.63-12.13,39.9-.62,1.8-1.68,1.91-3.36,1.71-.3-.03-.51-.33-.44-.63l1.55-6.2c.06-.24-.03-.35-.28-.34h0Z"/>
  <path class="cls-2" d="M313.56,194.57c-.09-.07-.15-.18-.16-.29l-2.06-19.72c-.02-.19,.03-.36,.14-.52l10.87-14.93c.12-.17,.3-.28,.51-.3l14.01-1.75c.18-.02,.34,.1,.37,.28,1.2,7.12,2.93,9.96,10.64,10.47,6.41,.42,13.84-3.13,18.72-7.12,.12-.1,.28-.16,.44-.17l12.07-.62c.16-.01,.31,.06,.41,.18l6.07,7.56c.13,.16,.19,.35,.19,.55l-.21,15.05c0,.18-.06,.35-.17,.49l-4.1,5.41c-.13,.17-.3,.24-.52,.2-3.53-.71-7.89-2.15-11.44-1.89-11.92,.87-23.83,1.8-35.74,2.79-.81,.06-1.56,.32-2.24,.77-4.01,2.64-7.96,5.29-11.86,7.96-.17,.11-.4,.11-.56-.02l-5.39-4.38h0Z"/>
  <path class="cls-8" d="M459.58,229.87l-16.74,.27c-.07,0-.12-.05-.13-.12,0-.06,.04-.13,.1-.14l16.57-3c.18-.03,.31-.2,.3-.38l-.73-10.83c-.02-.21-.1-.38-.25-.51-7.86-7.07,3.51-46.62,7.42-55.8,.3-.71,.68-1.34,1.14-1.87,.1-.11,.28-.03,.26,.12-2.94,20.42-3.05,41.34-1.63,62.28,.16,2.38,.32,4.27,.48,5.68,.02,.23,.15,.33,.39,.3l12.85-1.44c.21-.02,.31,.07,.3,.28l-.05,3.85c0,.24-.12,.37-.36,.38l-12.56,.7c-.17,.01-.24,.1-.23,.26l.59,11.32c.01,.22-.09,.33-.32,.33h-6.8c-.19,0-.29-.1-.29-.29v-11.09c0-.21-.1-.32-.32-.31h0Z"/>
  <path class="cls-8" d="M591,182.27v3.59c-36.51-2.54-72.98-5.63-109.39-9.27-1.68-.17-3.3-.45-4.85-.85-.07-.02-.12-.09-.11-.16,.01-.07,.07-.13,.14-.13,2.92-.02,5.8-.06,8.72,.09,35.19,1.86,70.37,3.9,105.49,6.73h0Z"/>
  <path class="cls-8" d="M486.34,190.53c-.05-.01-.09-.06-.08-.11,0-.05,.05-.09,.1-.09,15.25-.26,30.65-.39,45.79,1.87,2.92,.44,5.47,1.23,8.05,2.35,.58,.25,.59,.51,0,.78-2.48,1.13-8.94,.89-11.74,.72-14.11-.8-28.18-3.09-42.12-5.53h0Z"/>
  <path class="cls-8" d="M411.49,251.76c-.12,.05-.24,.05-.37-.02-.12-.06-.12-.23,0-.29,11.42-5.78,23.11-11.02,35.07-15.72,1.48-.58,3.46-1.17,5.93-1.76,.21-.05,.33,.03,.35,.25l.67,6.74c.02,.17-.05,.28-.22,.33-13.51,4.25-27.21,7.69-41.11,10.33-.04,0-.15,.05-.32,.13h0Z"/>
  <path class="cls-1" d="M226.47,267.55c-.06-.22,.04-.44,.24-.54l70.85-33.63s.1,0,.13,.04c.03,.04,.01,.11-.03,.13l-66.37,48.96c-.16,.11-.38,.04-.44-.15l-4.39-14.82h0Z"/>
  <path class="cls-7" d="M342.77,302.71c-.06,0-.13-.01-.16-.07l-43.76-69.11c-.85-1.3-.76-1.37,.28-.21l56.56,66.79c.1,.11,.04,.27-.1,.3l-12.81,2.31h0Z"/>
  <path class="cls-3" d="M284.75,282.54l12.5-49.07c.03-.11,.13-.18,.25-.17,.11,0,.2,.1,.21,.22l3.03,51.23c0,.15-.12,.26-.26,.25l-15.53-2.17c-.13-.02-.22-.16-.19-.29h0Z"/>
  <text class="cls-4" transform="translate(-.08 374.56)"><tspan x="0" y="0">monGBOR. </tspan><tspan class="cls-9" x="441.7" y="0">c</tspan><tspan x="482.62" y="0">om</tspan></text>
</svg>